<svg width="114" height="114" viewBox="0 0 114 114" fill="none" xmlns="http://www.w3.org/2000/svg">
<path d="M97.6055 14.5256C90.3413 12.0361 89.8639 5.08362 89.8477 3.55387V3.30268C89.8481 3.28726 89.8486 3.25611 89.8488 3.24742C89.8488 3.24709 89.8486 3.24683 89.8482 3.24683V3.24683C89.8479 3.24683 89.8477 3.24657 89.8477 3.24625V1C89.8477 0.447715 89.3999 0 88.8477 0H86.2075C85.6552 0 85.2075 0.447715 85.2075 1V3.51617C85.2063 3.65684 85.2037 3.79398 85.2075 3.94267V76.4824C85.2075 77.3616 84.1283 77.8393 83.423 77.3143C77.4208 72.8461 68.2313 71.1998 58.8832 73.6635C50.7162 75.8068 43.9667 80.5829 40.3652 86.7663C37.8729 91.0461 37.157 95.5755 38.2933 99.8622C40.5443 108.345 49.699 113.674 60.4589 113.674C63.2865 113.674 66.2275 113.305 69.1807 112.528C77.3476 110.384 84.0972 105.608 87.6987 99.4249C90.0981 95.3046 90.836 90.955 89.8748 86.8112C89.8571 86.7347 89.8477 86.6563 89.8477 86.5778V17.4708C89.8477 16.5746 90.9737 16.0949 91.6944 16.6276C92.9325 17.5428 94.3879 18.3296 96.101 18.9166C105.305 22.0694 109.53 29.7313 108.996 42.3218C108.973 42.8737 109.391 43.3503 109.943 43.3837L112.578 43.5435C113.129 43.5769 113.604 43.1538 113.628 42.6022C114.273 27.8341 108.885 18.3905 97.6055 14.5256ZM83.6884 97.089C80.7474 102.139 74.8838 106.234 68.0016 108.042C56.2831 111.116 44.9669 106.918 42.7793 98.6706C41.9647 95.6028 42.5166 92.2926 44.3755 89.1023C47.3165 84.052 53.1801 79.9578 60.0611 78.1497C62.668 77.4654 65.2541 77.1414 67.7249 77.1414C76.3631 77.1414 83.584 81.1089 85.2843 87.5208C86.0992 90.5887 85.5473 93.8966 83.6884 97.089Z" fill="url(#paint0_linear_4_5)"/>
<path d="M69.3157 15.9151H2.32008C1.03873 15.9151 0 16.9538 0 18.2352C0 19.5165 1.03874 20.5553 2.32008 20.5553H69.3157C70.5971 20.5553 71.6358 19.5165 71.6358 18.2352C71.6358 16.9538 70.5971 15.9151 69.3157 15.9151Z" fill="url(#paint1_linear_4_5)"/>
<path d="M69.3157 34.151H2.32008C1.03873 34.151 0 35.1897 0 36.4711C0 37.7524 1.03874 38.7912 2.32008 38.7912H69.3157C70.5971 38.7912 71.6358 37.7524 71.6358 36.4711C71.6358 35.1897 70.5971 34.151 69.3157 34.151Z" fill="url(#paint2_linear_4_5)"/>
<path d="M69.3157 52.3895H2.32008C1.03873 52.3895 0 53.4282 0 54.7096C0 55.9909 1.03874 57.0296 2.32008 57.0296H69.3157C70.5971 57.0296 71.6358 55.9909 71.6358 54.7096C71.6358 53.4282 70.5971 52.3895 69.3157 52.3895Z" fill="url(#paint3_linear_4_5)"/>
<defs>
<linearGradient id="paint0_linear_4_5" x1="35.6581" y1="50.4675" x2="126.248" y2="50.2399" gradientUnits="userSpaceOnUse">
<stop stop-color="#0A6B38"/>
<stop offset="1" stop-color="#9AD924"/>
</linearGradient>
<linearGradient id="paint1_linear_4_5" x1="-1.99131" y1="17.9752" x2="83.2094" y2="13.0283" gradientUnits="userSpaceOnUse">
<stop stop-color="#0A6B38"/>
<stop offset="1" stop-color="#9AD924"/>
</linearGradient>
<linearGradient id="paint2_linear_4_5" x1="-1.99131" y1="36.2111" x2="83.2094" y2="31.2642" gradientUnits="userSpaceOnUse">
<stop stop-color="#0A6B38"/>
<stop offset="1" stop-color="#9AD924"/>
</linearGradient>
<linearGradient id="paint3_linear_4_5" x1="-1.99131" y1="54.4496" x2="83.2094" y2="49.5027" gradientUnits="userSpaceOnUse">
<stop stop-color="#0A6B38"/>
<stop offset="1" stop-color="#9AD924"/>
</linearGradient>
</defs>
</svg>
