<svg width="755" height="137" viewBox="0 0 755 137" fill="none" xmlns="http://www.w3.org/2000/svg">
<path d="M181.152 78.484C181.152 81.7267 180.367 84.488 178.796 86.768C177.225 88.9973 174.971 90.72 172.032 91.936C169.144 93.152 165.724 93.76 161.772 93.76C159.745 93.76 157.795 93.6587 155.92 93.456C154.096 93.2533 152.424 92.9747 150.904 92.62C149.384 92.2147 148.041 91.7333 146.876 91.176V84.64C148.7 85.4507 150.955 86.1853 153.64 86.844C156.376 87.5027 159.188 87.832 162.076 87.832C164.761 87.832 167.016 87.4773 168.84 86.768C170.664 86.0587 172.032 85.0453 172.944 83.728C173.856 82.4107 174.312 80.8653 174.312 79.092C174.312 77.3187 173.932 75.824 173.172 74.608C172.412 73.392 171.095 72.2773 169.22 71.264C167.396 70.2 164.837 69.0853 161.544 67.92C159.213 67.0587 157.161 66.1467 155.388 65.184C153.665 64.1707 152.221 63.0307 151.056 61.764C149.891 60.4973 149.004 59.0533 148.396 57.432C147.839 55.8107 147.56 53.936 147.56 51.808C147.56 48.92 148.295 46.4627 149.764 44.436C151.233 42.3587 153.26 40.7627 155.844 39.648C158.479 38.5333 161.493 37.976 164.888 37.976C167.877 37.976 170.613 38.2547 173.096 38.812C175.579 39.3693 177.833 40.104 179.86 41.016L177.732 46.868C175.857 46.0573 173.805 45.3733 171.576 44.816C169.397 44.2587 167.117 43.98 164.736 43.98C162.456 43.98 160.556 44.3093 159.036 44.968C157.516 45.6267 156.376 46.564 155.616 47.78C154.856 48.9453 154.476 50.3133 154.476 51.884C154.476 53.708 154.856 55.228 155.616 56.444C156.376 57.66 157.617 58.7493 159.34 59.712C161.063 60.6747 163.393 61.7133 166.332 62.828C169.524 63.9933 172.209 65.26 174.388 66.628C176.617 67.9453 178.289 69.5413 179.404 71.416C180.569 73.2907 181.152 75.6467 181.152 78.484ZM210.551 51.504C215.567 51.504 219.595 53.252 222.635 56.748C225.726 60.244 227.271 65.5133 227.271 72.556C227.271 77.1667 226.562 81.068 225.143 84.26C223.775 87.4013 221.824 89.7827 219.291 91.404C216.808 92.9747 213.87 93.76 210.475 93.76C208.398 93.76 206.548 93.4813 204.927 92.924C203.306 92.3667 201.912 91.6573 200.747 90.796C199.632 89.884 198.67 88.896 197.859 87.832H197.403C197.504 88.6933 197.606 89.7827 197.707 91.1C197.808 92.4173 197.859 93.5573 197.859 94.52V111.24H191.171V52.264H196.643L197.555 57.812H197.859C198.67 56.6467 199.632 55.5827 200.747 54.62C201.912 53.6573 203.28 52.8973 204.851 52.34C206.472 51.7827 208.372 51.504 210.551 51.504ZM209.335 57.128C206.599 57.128 204.395 57.66 202.723 58.724C201.051 59.7373 199.835 61.2827 199.075 63.36C198.315 65.4373 197.91 68.072 197.859 71.264V72.556C197.859 75.9 198.214 78.7373 198.923 81.068C199.632 83.3987 200.823 85.172 202.495 86.388C204.218 87.604 206.548 88.212 209.487 88.212C211.97 88.212 213.996 87.528 215.567 86.16C217.188 84.792 218.379 82.9427 219.139 80.612C219.95 78.2307 220.355 75.52 220.355 72.48C220.355 67.8187 219.443 64.0947 217.619 61.308C215.846 58.5213 213.084 57.128 209.335 57.128ZM273.345 72.556C273.345 75.9507 272.889 78.9653 271.977 81.6C271.115 84.184 269.849 86.388 268.177 88.212C266.555 90.036 264.554 91.4293 262.173 92.392C259.842 93.304 257.233 93.76 254.345 93.76C251.659 93.76 249.177 93.304 246.897 92.392C244.617 91.4293 242.641 90.036 240.969 88.212C239.297 86.388 237.979 84.184 237.017 81.6C236.105 78.9653 235.649 75.9507 235.649 72.556C235.649 68.0467 236.409 64.2467 237.929 61.156C239.449 58.0147 241.627 55.6333 244.465 54.012C247.302 52.34 250.671 51.504 254.573 51.504C258.271 51.504 261.514 52.34 264.301 54.012C267.138 55.6333 269.342 58.0147 270.913 61.156C272.534 64.2467 273.345 68.0467 273.345 72.556ZM242.565 72.556C242.565 75.748 242.97 78.5347 243.781 80.916C244.642 83.2467 245.959 85.0453 247.733 86.312C249.506 87.5787 251.761 88.212 254.497 88.212C257.233 88.212 259.487 87.5787 261.261 86.312C263.034 85.0453 264.326 83.2467 265.137 80.916C265.998 78.5347 266.429 75.748 266.429 72.556C266.429 69.3133 265.998 66.552 265.137 64.272C264.275 61.992 262.958 60.244 261.185 59.028C259.462 57.7613 257.207 57.128 254.421 57.128C250.266 57.128 247.251 58.496 245.377 61.232C243.502 63.968 242.565 67.7427 242.565 72.556ZM297.548 88.288C298.562 88.288 299.6 88.212 300.664 88.06C301.728 87.8573 302.59 87.6547 303.248 87.452V92.544C302.539 92.8987 301.526 93.1773 300.208 93.38C298.891 93.6333 297.624 93.76 296.408 93.76C294.28 93.76 292.304 93.4053 290.48 92.696C288.707 91.936 287.263 90.644 286.148 88.82C285.034 86.996 284.476 84.4373 284.476 81.144V57.432H278.7V54.24L284.552 51.58L287.212 42.916H291.164V52.264H302.944V57.432H291.164V80.992C291.164 83.4747 291.747 85.324 292.912 86.54C294.128 87.7053 295.674 88.288 297.548 88.288ZM318.093 52.264V93H311.405V52.264H318.093ZM314.825 36.988C315.839 36.988 316.725 37.3427 317.485 38.052C318.296 38.7107 318.701 39.7747 318.701 41.244C318.701 42.6627 318.296 43.7267 317.485 44.436C316.725 45.1453 315.839 45.5 314.825 45.5C313.711 45.5 312.773 45.1453 312.013 44.436C311.253 43.7267 310.873 42.6627 310.873 41.244C310.873 39.7747 311.253 38.7107 312.013 38.052C312.773 37.3427 313.711 36.988 314.825 36.988ZM349.771 57.432H339.511V93H332.823V57.432H325.679V54.316L332.823 52.036V49.68C332.823 46.184 333.33 43.3467 334.343 41.168C335.407 38.9893 336.927 37.3933 338.903 36.38C340.879 35.3667 343.26 34.86 346.047 34.86C347.668 34.86 349.138 35.012 350.455 35.316C351.823 35.5693 352.988 35.8733 353.951 36.228L352.203 41.472C351.392 41.2187 350.455 40.9653 349.391 40.712C348.327 40.4587 347.238 40.332 346.123 40.332C343.894 40.332 342.222 41.092 341.107 42.612C340.043 44.0813 339.511 46.412 339.511 49.604V52.264H349.771V57.432ZM350.74 52.264H357.884L366.7 75.444C367.207 76.812 367.663 78.1293 368.068 79.396C368.524 80.6627 368.929 81.904 369.284 83.12C369.639 84.2853 369.917 85.4253 370.12 86.54H370.424C370.728 85.2733 371.209 83.6267 371.868 81.6C372.527 79.5227 373.211 77.4453 373.92 75.368L382.204 52.264H389.424L371.868 98.624C370.905 101.157 369.765 103.361 368.448 105.236C367.181 107.161 365.611 108.631 363.736 109.644C361.912 110.708 359.683 111.24 357.048 111.24C355.832 111.24 354.768 111.164 353.856 111.012C352.944 110.911 352.159 110.784 351.5 110.632V105.312C352.057 105.413 352.716 105.515 353.476 105.616C354.287 105.717 355.123 105.768 355.984 105.768C357.555 105.768 358.897 105.464 360.012 104.856C361.177 104.299 362.165 103.463 362.976 102.348C363.787 101.284 364.471 100.017 365.028 98.548L367.156 93.152L350.74 52.264ZM427.558 78.484C427.558 81.7267 426.773 84.488 425.202 86.768C423.632 88.9973 421.377 90.72 418.438 91.936C415.55 93.152 412.13 93.76 408.178 93.76C406.152 93.76 404.201 93.6587 402.326 93.456C400.502 93.2533 398.83 92.9747 397.31 92.62C395.79 92.2147 394.448 91.7333 393.282 91.176V84.64C395.106 85.4507 397.361 86.1853 400.046 86.844C402.782 87.5027 405.594 87.832 408.482 87.832C411.168 87.832 413.422 87.4773 415.246 86.768C417.07 86.0587 418.438 85.0453 419.35 83.728C420.262 82.4107 420.718 80.8653 420.718 79.092C420.718 77.3187 420.338 75.824 419.578 74.608C418.818 73.392 417.501 72.2773 415.626 71.264C413.802 70.2 411.244 69.0853 407.95 67.92C405.62 67.0587 403.568 66.1467 401.794 65.184C400.072 64.1707 398.628 63.0307 397.462 61.764C396.297 60.4973 395.41 59.0533 394.802 57.432C394.245 55.8107 393.966 53.936 393.966 51.808C393.966 48.92 394.701 46.4627 396.17 44.436C397.64 42.3587 399.666 40.7627 402.25 39.648C404.885 38.5333 407.9 37.976 411.294 37.976C414.284 37.976 417.02 38.2547 419.502 38.812C421.985 39.3693 424.24 40.104 426.266 41.016L424.138 46.868C422.264 46.0573 420.212 45.3733 417.982 44.816C415.804 44.2587 413.524 43.98 411.142 43.98C408.862 43.98 406.962 44.3093 405.442 44.968C403.922 45.6267 402.782 46.564 402.022 47.78C401.262 48.9453 400.882 50.3133 400.882 51.884C400.882 53.708 401.262 55.228 402.022 56.444C402.782 57.66 404.024 58.7493 405.746 59.712C407.469 60.6747 409.8 61.7133 412.738 62.828C415.93 63.9933 418.616 65.26 420.794 66.628C423.024 67.9453 424.696 69.5413 425.81 71.416C426.976 73.2907 427.558 75.6467 427.558 78.484ZM453.309 51.504C456.805 51.504 459.795 52.264 462.277 53.784C464.811 55.304 466.736 57.4573 468.053 60.244C469.421 62.98 470.105 66.1973 470.105 69.896V73.924H442.213C442.315 78.5347 443.48 82.056 445.709 84.488C447.989 86.8693 451.156 88.06 455.209 88.06C457.793 88.06 460.073 87.832 462.049 87.376C464.076 86.8693 466.153 86.16 468.281 85.248V91.1C466.204 92.012 464.152 92.6707 462.125 93.076C460.099 93.532 457.692 93.76 454.905 93.76C451.055 93.76 447.635 92.9747 444.645 91.404C441.707 89.8333 439.401 87.5027 437.729 84.412C436.108 81.2707 435.297 77.4453 435.297 72.936C435.297 68.4773 436.032 64.652 437.501 61.46C439.021 58.268 441.124 55.8107 443.809 54.088C446.545 52.3653 449.712 51.504 453.309 51.504ZM453.233 56.976C450.041 56.976 447.508 58.0147 445.633 60.092C443.809 62.1187 442.72 64.956 442.365 68.604H463.113C463.113 66.2733 462.759 64.2467 462.049 62.524C461.34 60.8013 460.251 59.4587 458.781 58.496C457.363 57.4827 455.513 56.976 453.233 56.976ZM500.084 51.504C504.948 51.504 508.621 52.6947 511.104 55.076C513.586 57.4067 514.828 61.2067 514.828 66.476V93H508.216V66.932C508.216 63.6387 507.481 61.1813 506.012 59.56C504.542 57.9387 502.237 57.128 499.096 57.128C494.586 57.128 491.47 58.3947 489.748 60.928C488.025 63.4613 487.164 67.1093 487.164 71.872V93H480.476V52.264H485.872L486.86 57.812H487.24C488.152 56.3933 489.266 55.228 490.584 54.316C491.952 53.3533 493.446 52.644 495.068 52.188C496.689 51.732 498.361 51.504 500.084 51.504ZM541.06 88.288C542.073 88.288 543.112 88.212 544.176 88.06C545.24 87.8573 546.101 87.6547 546.76 87.452V92.544C546.051 92.8987 545.037 93.1773 543.72 93.38C542.403 93.6333 541.136 93.76 539.92 93.76C537.792 93.76 535.816 93.4053 533.992 92.696C532.219 91.936 530.775 90.644 529.66 88.82C528.545 86.996 527.988 84.4373 527.988 81.144V57.432H522.212V54.24L528.064 51.58L530.724 42.916H534.676V52.264H546.456V57.432H534.676V80.992C534.676 83.4747 535.259 85.324 536.424 86.54C537.64 87.7053 539.185 88.288 541.06 88.288ZM570.649 51.504C574.145 51.504 577.134 52.264 579.617 53.784C582.15 55.304 584.076 57.4573 585.393 60.244C586.761 62.98 587.445 66.1973 587.445 69.896V73.924H559.553C559.654 78.5347 560.82 82.056 563.049 84.488C565.329 86.8693 568.496 88.06 572.549 88.06C575.133 88.06 577.413 87.832 579.389 87.376C581.416 86.8693 583.493 86.16 585.621 85.248V91.1C583.544 92.012 581.492 92.6707 579.465 93.076C577.438 93.532 575.032 93.76 572.245 93.76C568.394 93.76 564.974 92.9747 561.985 91.404C559.046 89.8333 556.741 87.5027 555.069 84.412C553.448 81.2707 552.637 77.4453 552.637 72.936C552.637 68.4773 553.372 64.652 554.841 61.46C556.361 58.268 558.464 55.8107 561.149 54.088C563.885 52.3653 567.052 51.504 570.649 51.504ZM570.573 56.976C567.381 56.976 564.848 58.0147 562.973 60.092C561.149 62.1187 560.06 64.956 559.705 68.604H580.453C580.453 66.2733 580.098 64.2467 579.389 62.524C578.68 60.8013 577.59 59.4587 576.121 58.496C574.702 57.4827 572.853 56.976 570.573 56.976ZM617.423 51.504C622.287 51.504 625.961 52.6947 628.443 55.076C630.926 57.4067 632.167 61.2067 632.167 66.476V93H625.555V66.932C625.555 63.6387 624.821 61.1813 623.351 59.56C621.882 57.9387 619.577 57.128 616.435 57.128C611.926 57.128 608.81 58.3947 607.087 60.928C605.365 63.4613 604.503 67.1093 604.503 71.872V93H597.815V52.264H603.211L604.199 57.812H604.579C605.491 56.3933 606.606 55.228 607.923 54.316C609.291 53.3533 610.786 52.644 612.407 52.188C614.029 51.732 615.701 51.504 617.423 51.504ZM661.136 93.76C657.539 93.76 654.321 93.0253 651.484 91.556C648.697 90.0867 646.493 87.8067 644.872 84.716C643.301 81.6253 642.516 77.6733 642.516 72.86C642.516 67.844 643.352 63.7653 645.024 60.624C646.696 57.4827 648.951 55.1773 651.788 53.708C654.676 52.2387 657.944 51.504 661.592 51.504C663.669 51.504 665.671 51.732 667.596 52.188C669.521 52.5933 671.092 53.1 672.308 53.708L670.256 59.256C669.04 58.8 667.621 58.3693 666 57.964C664.379 57.5587 662.859 57.356 661.44 57.356C658.704 57.356 656.449 57.9387 654.676 59.104C652.903 60.2693 651.585 61.992 650.724 64.272C649.863 66.552 649.432 69.3893 649.432 72.784C649.432 76.0267 649.863 78.788 650.724 81.068C651.585 83.348 652.877 85.0707 654.6 86.236C656.323 87.4013 658.476 87.984 661.06 87.984C663.289 87.984 665.24 87.756 666.912 87.3C668.635 86.844 670.205 86.2867 671.624 85.628V91.556C670.256 92.2653 668.736 92.7973 667.064 93.152C665.443 93.5573 663.467 93.76 661.136 93.76ZM697.044 51.504C700.54 51.504 703.529 52.264 706.012 53.784C708.545 55.304 710.47 57.4573 711.788 60.244C713.156 62.98 713.84 66.1973 713.84 69.896V73.924H685.948C686.049 78.5347 687.214 82.056 689.444 84.488C691.724 86.8693 694.89 88.06 698.944 88.06C701.528 88.06 703.808 87.832 705.784 87.376C707.81 86.8693 709.888 86.16 712.016 85.248V91.1C709.938 92.012 707.886 92.6707 705.86 93.076C703.833 93.532 701.426 93.76 698.64 93.76C694.789 93.76 691.369 92.9747 688.38 91.404C685.441 89.8333 683.136 87.5027 681.464 84.412C679.842 81.2707 679.032 77.4453 679.032 72.936C679.032 68.4773 679.766 64.652 681.236 61.46C682.756 58.268 684.858 55.8107 687.544 54.088C690.28 52.3653 693.446 51.504 697.044 51.504ZM696.968 56.976C693.776 56.976 691.242 58.0147 689.368 60.092C687.544 62.1187 686.454 64.956 686.1 68.604H706.848C706.848 66.2733 706.493 64.2467 705.784 62.524C705.074 60.8013 703.985 59.4587 702.516 58.496C701.097 57.4827 699.248 56.976 696.968 56.976ZM750.734 81.752C750.734 84.3867 750.075 86.5907 748.758 88.364C747.441 90.1373 745.566 91.48 743.134 92.392C740.702 93.304 737.814 93.76 734.47 93.76C731.633 93.76 729.175 93.532 727.098 93.076C725.071 92.62 723.273 91.9867 721.702 91.176V85.096C723.323 85.9067 725.274 86.6667 727.554 87.376C729.885 88.0347 732.241 88.364 734.622 88.364C738.017 88.364 740.474 87.832 741.994 86.768C743.514 85.6533 744.274 84.184 744.274 82.36C744.274 81.3467 743.995 80.4347 743.438 79.624C742.881 78.8133 741.867 78.0027 740.398 77.192C738.979 76.3813 736.927 75.4693 734.242 74.456C731.607 73.4427 729.353 72.4293 727.478 71.416C725.603 70.4027 724.159 69.1867 723.146 67.768C722.133 66.3493 721.626 64.5253 721.626 62.296C721.626 58.8507 723.019 56.1907 725.806 54.316C728.643 52.4413 732.342 51.504 736.902 51.504C739.385 51.504 741.69 51.7573 743.818 52.264C745.997 52.72 748.023 53.3787 749.898 54.24L747.618 59.56C746.503 59.0533 745.313 58.6227 744.046 58.268C742.83 57.8627 741.589 57.5587 740.322 57.356C739.055 57.1027 737.763 56.976 736.446 56.976C733.71 56.976 731.607 57.432 730.138 58.344C728.719 59.2053 728.01 60.396 728.01 61.916C728.01 63.0307 728.339 63.9933 728.998 64.804C729.657 65.564 730.746 66.324 732.266 67.084C733.837 67.7933 735.914 68.6547 738.498 69.668C741.082 70.6307 743.286 71.6187 745.11 72.632C746.934 73.6453 748.327 74.8867 749.29 76.356C750.253 77.7747 750.734 79.5733 750.734 81.752Z" fill="#F6F6F6"/>
<path d="M97.6055 25.5256C90.3413 23.0361 89.8639 16.0836 89.8477 14.5539V14.3027C89.8481 14.2873 89.8486 14.2561 89.8488 14.2474C89.8488 14.2471 89.8486 14.2468 89.8482 14.2468V14.2468C89.8479 14.2468 89.8477 14.2466 89.8477 14.2463V12C89.8477 11.4477 89.3999 11 88.8477 11H86.2075C85.6552 11 85.2075 11.4477 85.2075 12V14.5162C85.2063 14.6568 85.2037 14.794 85.2075 14.9427V87.4824C85.2075 88.3616 84.1283 88.8393 83.423 88.3143C77.4208 83.8461 68.2313 82.1998 58.8832 84.6635C50.7162 86.8068 43.9667 91.5829 40.3652 97.7663C37.8729 102.046 37.157 106.576 38.2933 110.862C40.5443 119.345 49.699 124.674 60.4589 124.674C63.2865 124.674 66.2275 124.305 69.1807 123.528C77.3476 121.384 84.0972 116.608 87.6987 110.425C90.0981 106.305 90.836 101.955 89.8748 97.8112C89.8571 97.7347 89.8477 97.6563 89.8477 97.5778V28.4708C89.8477 27.5746 90.9737 27.0949 91.6944 27.6276C92.9325 28.5428 94.3879 29.3296 96.101 29.9166C105.305 33.0694 109.53 40.7313 108.996 53.3218C108.973 53.8737 109.391 54.3503 109.943 54.3837L112.578 54.5435C113.129 54.5769 113.604 54.1538 113.628 53.6022C114.273 38.8341 108.885 29.3905 97.6055 25.5256ZM83.6884 108.089C80.7474 113.139 74.8838 117.234 68.0016 119.042C56.2831 122.116 44.9669 117.918 42.7793 109.671C41.9647 106.603 42.5166 103.293 44.3755 100.102C47.3165 95.052 53.1801 90.9578 60.0611 89.1497C62.668 88.4654 65.2541 88.1414 67.7249 88.1414C76.3631 88.1414 83.584 92.1089 85.2843 98.5208C86.0992 101.589 85.5473 104.897 83.6884 108.089Z" fill="url(#paint0_linear_4_2)"/>
<path d="M69.3157 26.9151H2.32008C1.03873 26.9151 0 27.9538 0 29.2352C0 30.5165 1.03874 31.5553 2.32008 31.5553H69.3157C70.5971 31.5553 71.6358 30.5165 71.6358 29.2352C71.6358 27.9538 70.5971 26.9151 69.3157 26.9151Z" fill="url(#paint1_linear_4_2)"/>
<path d="M69.3157 45.151H2.32008C1.03873 45.151 0 46.1897 0 47.4711C0 48.7524 1.03874 49.7912 2.32008 49.7912H69.3157C70.5971 49.7912 71.6358 48.7524 71.6358 47.4711C71.6358 46.1897 70.5971 45.151 69.3157 45.151Z" fill="url(#paint2_linear_4_2)"/>
<path d="M69.3157 63.3895H2.32008C1.03873 63.3895 0 64.4282 0 65.7096C0 66.9909 1.03874 68.0296 2.32008 68.0296H69.3157C70.5971 68.0296 71.6358 66.9909 71.6358 65.7096C71.6358 64.4282 70.5971 63.3895 69.3157 63.3895Z" fill="url(#paint3_linear_4_2)"/>
<defs>
<linearGradient id="paint0_linear_4_2" x1="35.6581" y1="61.4675" x2="126.248" y2="61.2399" gradientUnits="userSpaceOnUse">
<stop stop-color="#0A6B38"/>
<stop offset="1" stop-color="#9AD924"/>
</linearGradient>
<linearGradient id="paint1_linear_4_2" x1="-1.99131" y1="28.9752" x2="83.2094" y2="24.0283" gradientUnits="userSpaceOnUse">
<stop stop-color="#0A6B38"/>
<stop offset="1" stop-color="#9AD924"/>
</linearGradient>
<linearGradient id="paint2_linear_4_2" x1="-1.99131" y1="47.2111" x2="83.2094" y2="42.2642" gradientUnits="userSpaceOnUse">
<stop stop-color="#0A6B38"/>
<stop offset="1" stop-color="#9AD924"/>
</linearGradient>
<linearGradient id="paint3_linear_4_2" x1="-1.99131" y1="65.4496" x2="83.2094" y2="60.5027" gradientUnits="userSpaceOnUse">
<stop stop-color="#0A6B38"/>
<stop offset="1" stop-color="#9AD924"/>
</linearGradient>
</defs>
</svg>
